<svg width="1433" height="914" viewBox="0 0 1433 914" fill="none" xmlns="http://www.w3.org/2000/svg">
<rect width="1440" height="923" transform="translate(-7 -9)" fill="white"/>
<path d="M1114.41 514.5L1115.26 515.04L1114.41 514.5ZM1111.41 683L1122.35 679.299L1113.68 671.677L1111.41 683ZM1211.91 452C1211.91 502.742 1180.27 529.525 1152.31 537.98C1138.28 542.225 1125.36 541.798 1117.84 537.678C1114.12 535.638 1111.78 532.731 1111.16 529.06C1110.54 525.355 1111.65 520.671 1115.26 515.04L1113.57 513.96C1109.81 519.829 1108.46 525.02 1109.19 529.391C1109.93 533.796 1112.75 537.167 1116.88 539.432C1125.07 543.92 1138.61 544.213 1152.89 539.895C1181.56 531.225 1213.91 503.758 1213.91 452H1211.91ZM1115.26 515.04C1122.54 503.688 1133.99 498.973 1145.17 500.44C1156.36 501.908 1167.38 509.593 1173.65 523.282C1186.2 550.668 1179.78 602.347 1116.59 675.593L1118.11 676.899C1181.44 603.493 1188.53 550.949 1175.47 522.449C1168.94 508.197 1157.37 500.023 1145.43 498.457C1133.48 496.888 1121.27 501.961 1113.57 513.96L1115.26 515.04Z" fill="#74DCDF"/>
<path d="M221.968 194.723C131.467 159.723 313.968 384.223 221.968 337.223" stroke="#74DCDF" stroke-width="2"/>
<path d="M226 495.5C226 493.202 225.547 490.926 224.668 488.803C223.788 486.68 222.499 484.751 220.874 483.126C219.249 481.501 217.32 480.212 215.197 479.332C213.074 478.453 210.798 478 208.5 478V495.5H226Z" fill="#FCB009"/>
<path d="M1063 173.5C1063 171.202 1062.55 168.926 1061.67 166.803C1060.79 164.68 1059.5 162.751 1057.87 161.126C1056.25 159.501 1054.32 158.212 1052.2 157.332C1050.07 156.453 1047.8 156 1045.5 156V173.5H1063Z" fill="#FFDC8F"/>
<path d="M1003 689.5C1003 687.202 1002.55 684.926 1001.67 682.803C1000.79 680.68 999.499 678.751 997.874 677.126C996.249 675.501 994.32 674.212 992.197 673.332C990.074 672.453 987.798 672 985.5 672V689.5H1003Z" fill="#43808C"/>
<path d="M417 719.5C417 716.039 415.974 712.655 414.051 709.778C412.128 706.9 409.395 704.657 406.197 703.332C402.999 702.008 399.481 701.661 396.086 702.336C392.691 703.011 389.573 704.678 387.126 707.126C384.678 709.573 383.011 712.691 382.336 716.086C381.661 719.481 382.008 722.999 383.332 726.197C384.657 729.395 386.9 732.128 389.778 734.051C392.655 735.974 396.039 737 399.5 737V719.5H417Z" fill="#74DCDF"/>
</svg>
